<svg width="435" height="360" viewBox="0 0 435 360" fill="none" xmlns="http://www.w3.org/2000/svg">
<path d="M45.0049 42.7371C49.0422 18.6482 69.8923 1.00171 94.3172 1.00171H384C411.614 1.00171 434 23.3875 434 51.0017V309.002C434 336.616 411.614 359.002 384 359.002H51.0769C20.1616 359.002 -3.34535 331.227 1.76472 300.737L45.0049 42.7371Z" fill="#2D9CDB"/>
<path d="M45.0049 42.7371C49.0422 18.6482 69.8923 1.00171 94.3172 1.00171H384C411.614 1.00171 434 23.3875 434 51.0017V309.002C434 336.616 411.614 359.002 384 359.002H51.0769C20.1616 359.002 -3.34535 331.227 1.76472 300.737L45.0049 42.7371Z" stroke="white" stroke-width="1.5"/>
<path d="M403.314 317.973C399.744 327.413 383.899 330.167 367.925 324.125C351.95 318.082 341.894 305.532 345.465 296.092C349.035 286.652 364.88 283.898 380.854 289.941C396.829 295.983 406.885 308.533 403.314 317.973Z" stroke="white" stroke-width="1.5"/>
<path d="M100.441 248.712C39.9069 260.919 25.2826 196.795 66.6731 122.691C160.669 -17.8766 309.121 23.8655 331.761 51.6613C354.4 79.4571 336.207 112.798 248.968 127.395C161.729 141.991 176.109 233.454 100.441 248.712Z" stroke="white" stroke-width="1.5"/>
</svg>
