<svg width="435" height="360" viewBox="0 0 435 360" fill="none" xmlns="http://www.w3.org/2000/svg">
<path d="M45.0049 42.7354C49.0422 18.6465 69.8923 1 94.3172 1H384C411.614 1 434 23.3858 434 51V309C434 336.614 411.614 359 384 359H51.0769C20.1616 359 -3.34535 331.225 1.76472 300.735L45.0049 42.7354Z" fill="#F063B8"/>
<path d="M45.0049 42.7354C49.0422 18.6465 69.8923 1 94.3172 1H384C411.614 1 434 23.3858 434 51V309C434 336.614 411.614 359 384 359H51.0769C20.1616 359 -3.34535 331.225 1.76472 300.735L45.0049 42.7354Z" stroke="white" stroke-width="1.5"/>
<path d="M342.053 74.4407C336.5 64.8236 345.193 49.4101 361.468 40.0137C377.743 30.6173 395.438 30.7962 400.99 40.4133C406.543 50.0303 397.85 65.4438 381.575 74.8403C365.3 84.2367 347.605 84.0578 342.053 74.4407Z" stroke="white" stroke-width="1.5"/>
</svg>
