<svg width="435" height="360" viewBox="0 0 435 360" fill="none" xmlns="http://www.w3.org/2000/svg">
<path d="M45.0049 42.7356C49.0422 18.6468 69.8923 1.00024 94.3172 1.00024H384C411.614 1.00024 434 23.386 434 51.0002V309C434 336.614 411.614 359 384 359H51.0769C20.1616 359 -3.34535 331.226 1.76472 300.736L45.0049 42.7356Z" fill="#68C9BA"/>
<path d="M45.0049 42.7356C49.0422 18.6468 69.8923 1.00024 94.3172 1.00024H384C411.614 1.00024 434 23.386 434 51.0002V309C434 336.614 411.614 359 384 359H51.0769C20.1616 359 -3.34535 331.226 1.76472 300.736L45.0049 42.7356Z" stroke="white" stroke-width="1.5"/>
<path d="M401.728 95.0296C427.453 124.207 397.078 152.381 343.617 153.141C237.33 146.137 213.346 52.0075 221.379 30.9029C229.411 9.79827 253.33 9.22223 288.769 52.2152C324.207 95.2082 369.573 58.5574 401.728 95.0296Z" stroke="white" stroke-width="1.5"/>
<path d="M313.107 66.1108C311.162 71.2536 302.53 72.7541 293.826 69.4622C285.123 66.1703 279.645 59.3327 281.59 54.1899C283.535 49.0471 292.167 47.5466 300.871 50.8385C309.574 54.1303 315.052 60.968 313.107 66.1108Z" stroke="white" stroke-width="1.5"/>
</svg>
