<svg width="435" height="367" viewBox="0 0 435 367" fill="none" xmlns="http://www.w3.org/2000/svg">
<path d="M45.2255 42.8842C49.1992 18.727 70.0805 1 94.5624 1H384.115C411.729 1 434.115 23.3858 434.115 51V315.748C434.115 343.362 411.729 365.748 384.115 365.748H51.0121C20.1579 365.748 -3.33298 338.077 1.67515 307.632L45.2255 42.8842Z" fill="#9C69E2"/>
<path d="M45.2255 42.8842C49.1992 18.727 70.0805 1 94.5624 1H384.115C411.729 1 434.115 23.3858 434.115 51V315.748C434.115 343.362 411.729 365.748 384.115 365.748H51.0121C20.1579 365.748 -3.33298 338.077 1.67515 307.632L45.2255 42.8842Z" fill="#9C69E2"/>
<path d="M45.2255 42.8842C49.1992 18.727 70.0805 1 94.5624 1H384.115C411.729 1 434.115 23.3858 434.115 51V315.748C434.115 343.362 411.729 365.748 384.115 365.748H51.0121C20.1579 365.748 -3.33298 338.077 1.67515 307.632L45.2255 42.8842Z" stroke="white" stroke-width="1.5"/>
<path d="M45.2255 42.8842C49.1992 18.727 70.0805 1 94.5624 1H384.115C411.729 1 434.115 23.3858 434.115 51V315.748C434.115 343.362 411.729 365.748 384.115 365.748H51.0121C20.1579 365.748 -3.33298 338.077 1.67515 307.632L45.2255 42.8842Z" stroke="white" stroke-width="1.5"/>
<path d="M207.204 265.229C179.158 232.819 212.274 201.523 270.559 200.679C386.437 208.459 412.586 313.018 403.828 336.46C395.071 359.903 368.994 360.543 330.357 312.787C291.72 265.031 242.261 305.742 207.204 265.229Z" stroke="white" stroke-width="1.5"/>
</svg>
